<svg width="118" height="48" viewBox="0 0 118 48" fill="none" xmlns="http://www.w3.org/2000/svg">
<path d="M38.146 34.9308L15.1772 34.9162L15.2744 12.8461L38.2431 12.8607L38.2254 16.8841L19.2996 16.872L19.238 30.8758L38.1638 30.8879L38.146 34.9308ZM35.6275 25.8082L21.1549 25.7989L21.1727 21.756L35.6453 21.7653L35.6275 25.8082ZM67.8365 20.946C67.8317 22.0397 67.6123 23.0748 67.1783 24.051C66.7574 25.0143 66.1807 25.8668 65.4483 26.6085C64.7289 27.3372 63.88 27.9161 62.9016 28.3451C61.9231 28.7742 60.887 28.9884 59.7933 28.9877L48.68 28.9806L48.6974 25.0158L59.8107 25.0229C60.3706 25.0232 60.8984 24.9129 61.3942 24.6919C61.89 24.4708 62.321 24.1781 62.6871 23.8138C63.0534 23.4364 63.3418 23.0004 63.5523 22.5058C63.7628 22.0111 63.8693 21.4903 63.8717 20.9435C63.8741 20.3836 63.7722 19.8627 63.566 19.3808C63.3599 18.8859 63.0753 18.456 62.7123 18.0912C62.3494 17.7264 61.9209 17.4396 61.4271 17.231C60.9332 17.0093 60.4064 16.8983 59.8465 16.898L46.6434 16.8895L46.5639 34.9362L42.5991 34.9337L42.6959 12.9417L59.8639 12.9527C60.9576 12.9534 61.9918 13.1689 62.9665 13.5992C63.9412 14.0165 64.785 14.5899 65.498 15.3195C66.224 16.0362 66.7932 16.8829 67.2056 17.8597C67.631 18.8235 67.8413 19.8523 67.8365 20.946ZM75.4311 34.9547L71.4663 34.9521L71.5631 12.9602L75.5279 12.9627L75.4311 34.9547ZM105.342 28.4895C105.338 29.3879 105.165 30.2341 104.823 31.0282C104.481 31.8092 104.016 32.4925 103.428 33.078C102.852 33.6636 102.167 34.1254 101.371 34.4634C100.588 34.8015 99.7475 34.9702 98.8491 34.9696L80.1577 34.9577L80.1753 30.9538L98.8667 30.9658C99.2182 30.966 99.544 30.9076 99.844 30.7906C100.157 30.6606 100.425 30.485 100.647 30.2638C100.883 30.0296 101.066 29.7628 101.198 29.4634C101.329 29.164 101.396 28.8385 101.397 28.4869C101.399 28.1354 101.335 27.8098 101.206 27.5103C101.077 27.1977 100.896 26.9306 100.663 26.7091C100.442 26.4746 100.176 26.2922 99.8644 26.1618C99.5655 26.0314 99.2403 25.966 98.8887 25.9658L86.6426 25.958C85.7572 25.9574 84.9246 25.7876 84.1448 25.4486C83.3651 25.1095 82.6835 24.6469 82.1002 24.0606C81.5169 23.4612 81.0577 22.7643 80.7226 21.9699C80.3876 21.1754 80.2221 20.3289 80.226 19.4305C80.2299 18.5581 80.4028 17.7314 80.7447 16.9504C81.0868 16.1563 81.5521 15.4665 82.1406 14.881C82.7291 14.2954 83.4147 13.8336 84.1975 13.4956C84.9803 13.1445 85.8144 12.9693 86.6998 12.9698L103.946 12.9809L103.929 16.9261L86.6824 16.9151C86.3439 16.9149 86.018 16.9863 85.7049 17.1293C85.4049 17.2593 85.1436 17.4415 84.9213 17.6757C84.6989 17.8969 84.522 18.1637 84.3904 18.4761C84.2589 18.7755 84.1923 19.0945 84.1909 19.433C84.1893 19.7846 84.253 20.1167 84.3818 20.4292C84.5107 20.7288 84.6853 20.9958 84.9056 21.2304C85.126 21.4518 85.3856 21.6278 85.6845 21.7582C85.9965 21.8886 86.3217 21.9539 86.6602 21.9541L98.9063 21.962C99.8048 21.9625 100.644 22.1388 101.424 22.4909C102.216 22.8299 102.898 23.2991 103.468 23.8984C104.051 24.4848 104.511 25.1751 104.846 25.9696C105.181 26.7641 105.346 27.6041 105.342 28.4895Z" fill="white"/>
<path d="M6.14248 30.0639C6.12718 29.8802 6.19682 29.71 6.3514 29.5535C6.50598 29.397 6.80198 29.2395 7.2394 29.0812C7.69087 28.9087 8.13602 28.8563 8.57487 28.9243C9.02776 28.978 9.31825 29.0681 9.44633 29.1946C9.56018 29.307 9.61763 29.4481 9.6187 29.6178L10.1423 38.6515L18.9676 38.7232C19.1373 38.7221 19.2862 38.7848 19.4143 38.9113C19.5281 39.0237 19.6219 39.313 19.6955 39.7793C19.755 40.2314 19.7083 40.6772 19.5555 41.1166C19.3884 41.5419 19.2276 41.8329 19.0731 41.9894C18.9325 42.1317 18.7633 42.2035 18.5653 42.2047L8.23132 41.7395C7.83535 41.742 7.55909 41.6659 7.40255 41.5114C7.24601 41.3568 7.16685 41.1381 7.16507 40.8552L6.14248 30.0639Z" fill="white"/>
<path d="M112.102 7.62944C112.382 7.6717 112.587 7.78136 112.718 7.95843C112.848 8.13549 112.884 8.41979 112.825 8.81132L111.805 19.1054C111.776 19.3012 111.673 19.4643 111.496 19.5949C111.335 19.7136 111.024 19.8311 110.563 19.9474C110.106 20.0357 109.658 20.0181 109.219 19.8945C108.784 19.743 108.519 19.6028 108.424 19.4741C108.318 19.3292 108.277 19.1729 108.302 19.0051L109.495 10.2604L100.629 8.44866C100.462 8.4233 100.33 8.34623 100.235 8.21746C100.128 8.07259 100.073 7.77813 100.068 7.33408C100.08 6.87816 100.201 6.45313 100.433 6.05899C100.668 5.63688 100.866 5.36647 101.027 5.24777C101.204 5.1172 101.385 5.05866 101.569 5.07214L112.102 7.62944Z" fill="white"/>
</svg>
